<svg width="22" height="22" viewBox="0 0 22 22" fill="none" xmlns="http://www.w3.org/2000/svg">
<path fill-rule="evenodd" clip-rule="evenodd" d="M11 1.75C5.89088 1.75 1.75 5.89088 1.75 11C1.75 16.1091 5.89088 20.25 11 20.25C16.1091 20.25 20.25 16.1091 20.25 11C20.25 5.89088 16.1091 1.75 11 1.75ZM0.25 11C0.25 5.06245 5.06245 0.25 11 0.25C16.9375 0.25 21.75 5.06245 21.75 11C21.75 16.9375 16.9375 21.75 11 21.75C5.06245 21.75 0.25 16.9375 0.25 11ZM11 7.25C11.4142 7.25 11.75 7.58579 11.75 8V10.25H14C14.4142 10.25 14.75 10.5858 14.75 11C14.75 11.4142 14.4142 11.75 14 11.75H11.75V14C11.75 14.4142 11.4142 14.75 11 14.75C10.5858 14.75 10.25 14.4142 10.25 14V11.75H8C7.58579 11.75 7.25 11.4142 7.25 11C7.25 10.5858 7.58579 10.25 8 10.25H10.25V8C10.25 7.58579 10.5858 7.25 11 7.25Z" fill="white"/>
</svg>
