<svg width="20" height="21" viewBox="0 0 20 21" fill="none" xmlns="http://www.w3.org/2000/svg">
<path fill-rule="evenodd" clip-rule="evenodd" d="M4.04571 8.43598C4.04571 7.76474 4.04619 7.12236 4.10087 6.4947C4.35777 3.76959 7.10946 1.75 9.96106 1.75H10.0387C12.8891 1.75 15.6426 3.76888 15.9087 6.4958C15.9341 6.78927 15.9346 7.09141 15.9334 7.42879L15.9332 7.48039C15.932 7.79495 15.9306 8.14215 15.956 8.49042C15.9584 8.52391 15.9631 8.55719 15.97 8.59004C16.1751 9.56734 16.6354 10.4737 17.3037 11.2208C17.5711 11.631 17.7242 12.1016 17.7489 12.586V12.7776L17.7491 12.7963C17.766 13.4743 17.5354 14.1376 17.0961 14.6664C16.4764 15.308 15.6375 15.7093 14.7344 15.7915L14.7344 15.7914L14.7224 15.7927C11.5802 16.1298 8.40985 16.1298 5.26762 15.7927L5.26762 15.7927L5.25858 15.7918C4.35615 15.706 3.51797 15.3056 2.89505 14.6674C2.46335 14.1375 2.23617 13.4778 2.25065 12.8032L2.25083 12.7871V12.5878C2.27805 12.0998 2.43131 11.6259 2.69707 11.2105C3.36706 10.4681 3.82754 9.564 4.03006 8.58842C4.04047 8.53827 4.04571 8.48719 4.04571 8.43598ZM9.96106 0.25C6.54591 0.25 2.95318 2.66609 2.6072 6.35703L2.60719 6.35703L2.60677 6.36177C2.54772 7.03783 2.54578 7.71785 2.54572 8.35566C2.38701 9.05619 2.04504 9.70611 1.55132 10.2408C1.52455 10.2698 1.50011 10.3009 1.47823 10.3337C1.04185 10.9886 0.790617 11.7471 0.751746 12.531C0.751133 12.5434 0.750826 12.5557 0.750826 12.5681V12.7794C0.73043 13.8239 1.08842 14.8399 1.75818 15.6465C1.76982 15.6605 1.78197 15.6741 1.7946 15.6873C2.66977 16.5973 3.84852 17.1634 5.11194 17.2846C5.49093 17.3252 5.87031 17.3611 6.25 17.3922V17.4132C6.25 19.3561 8.03679 20.75 10 20.75C11.9634 20.75 13.75 19.356 13.75 17.4121V17.3914C14.1259 17.3605 14.5014 17.325 14.8766 17.2848C16.1428 17.1681 17.3245 16.6004 18.1975 15.685C18.208 15.674 18.2182 15.6627 18.228 15.6511C18.9091 14.844 19.2727 13.8207 19.2489 12.7687V12.5681C19.2489 12.5569 19.2486 12.5456 19.2481 12.5344C19.2128 11.7497 18.96 10.9905 18.5183 10.3385C18.498 10.3086 18.4756 10.2801 18.4512 10.2534C17.9521 9.70683 17.6073 9.04415 17.4486 8.33068C17.4311 8.05746 17.4321 7.77778 17.4333 7.4672L17.4334 7.43421C17.4346 7.1017 17.4351 6.73367 17.4027 6.36177L17.4027 6.36176L17.402 6.35479C17.0451 2.66625 13.4546 0.25 10.0387 0.25H9.96106ZM12.2478 17.4901C10.7502 17.5638 9.24977 17.564 7.75214 17.4906C7.8011 18.3783 8.68719 19.25 10 19.25C11.3123 19.25 12.1985 18.3788 12.2478 17.4901Z" fill="#66768E"/>
</svg>
