<svg width="18" height="16" viewBox="0 0 18 16" fill="none" xmlns="http://www.w3.org/2000/svg">
<path fill-rule="evenodd" clip-rule="evenodd" d="M13.8502 2.7691H12.8749V1.64583C12.8749 1.00389 12.3994 0.597052 12.0202 0.394813C11.6087 0.175386 11.092 0.0625 10.5624 0.0625H7.43738C6.90772 0.0625 6.39101 0.175386 5.97958 0.394813C5.60039 0.597052 5.12488 1.00389 5.12488 1.64583V2.7691H4.14945C2.27015 2.7691 0.746681 4.29258 0.746681 6.17188V12.6896C0.746681 14.4851 2.20222 15.9406 3.99772 15.9406H14.0019C15.7974 15.9406 17.2529 14.4851 17.2529 12.6896V6.17188C17.2529 4.29258 15.7295 2.7691 13.8502 2.7691ZM6.62488 2.7691H11.3749V1.75418C11.3599 1.74413 11.3401 1.73209 11.3143 1.71834C11.1602 1.63616 10.8957 1.5625 10.5624 1.5625H7.43738C7.10409 1.5625 6.83955 1.63616 6.68547 1.71834C6.65968 1.73209 6.63987 1.74413 6.62488 1.75418V2.7691ZM11.4163 1.78882C11.4168 1.78869 11.4145 1.7853 11.4076 1.77905C11.4123 1.78582 11.4157 1.78894 11.4163 1.78882ZM6.58347 1.78882C6.58402 1.78894 6.58747 1.78582 6.59215 1.77905C6.58527 1.7853 6.58292 1.78869 6.58347 1.78882ZM12.0001 13.25C12.4143 13.25 12.7501 13.5858 12.7501 14C12.7501 14.1647 12.697 14.3169 12.6071 14.4406H14.0019C14.969 14.4406 15.7529 13.6567 15.7529 12.6896V7.56041C11.7545 9.97989 6.24506 9.97986 2.24668 7.56032V12.6896C2.24668 13.6567 3.03065 14.4406 3.99772 14.4406H9.39311C9.30315 14.3169 9.25008 14.1647 9.25008 14C9.25008 13.5858 9.58587 13.25 10.0001 13.25H12.0001ZM2.2862 5.7842C6.06775 8.5719 11.9318 8.57193 15.7134 5.7843C15.5344 4.91928 14.7682 4.2691 13.8502 4.2691H4.14945C3.23143 4.2691 2.46524 4.91924 2.2862 5.7842Z" fill="white"/>
</svg>
