<svg width="20" height="22" viewBox="0 0 20 22" fill="none" xmlns="http://www.w3.org/2000/svg">
<path fill-rule="evenodd" clip-rule="evenodd" d="M14.75 1C14.75 0.585786 14.4142 0.25 14 0.25C13.5858 0.25 13.25 0.585786 13.25 1V1.75H6.75V1C6.75 0.585786 6.41421 0.25 6 0.25C5.58579 0.25 5.25 0.585786 5.25 1V1.78025C3.71409 1.90808 2.4962 2.44034 1.6379 3.36466C0.653634 4.42465 0.25 5.88503 0.25 7.5V16C0.25 17.615 0.653634 19.0754 1.6379 20.1353C2.63152 21.2054 4.10705 21.75 6 21.75H14C15.893 21.75 17.3685 21.2054 18.3621 20.1353C19.3464 19.0754 19.75 17.615 19.75 16V7.5C19.75 5.88503 19.3464 4.42465 18.3621 3.36466C17.5038 2.44034 16.2859 1.90808 14.75 1.78025V1ZM5.25 4V3.28628C4.06502 3.40668 3.26412 3.81778 2.7371 4.38534C2.12129 5.04852 1.77739 6.03463 1.75157 7.33997H18.2484C18.2226 6.03463 17.8787 5.04852 17.2629 4.38534C16.7359 3.81778 15.935 3.40668 14.75 3.28628V4C14.75 4.41421 14.4142 4.75 14 4.75C13.5858 4.75 13.25 4.41421 13.25 4V3.25H6.75V4C6.75 4.41421 6.41421 4.75 6 4.75C5.58579 4.75 5.25 4.41421 5.25 4ZM18.25 8.83997H1.75V16C1.75 17.385 2.09637 18.4246 2.7371 19.1147C3.36848 19.7946 4.39295 20.25 6 20.25H14C15.607 20.25 16.6315 19.7946 17.2629 19.1147C17.9036 18.4246 18.25 17.385 18.25 16V8.83997ZM5 11.25C4.58579 11.25 4.25 11.5858 4.25 12C4.25 12.4142 4.58579 12.75 5 12.75H15C15.4142 12.75 15.75 12.4142 15.75 12C15.75 11.5858 15.4142 11.25 15 11.25H5ZM4.25 16C4.25 15.5858 4.58579 15.25 5 15.25H15C15.4142 15.25 15.75 15.5858 15.75 16C15.75 16.4142 15.4142 16.75 15 16.75H5C4.58579 16.75 4.25 16.4142 4.25 16Z" fill="#66768E"/>
</svg>
