<svg width="18" height="19" viewBox="0 0 18 19" fill="none" xmlns="http://www.w3.org/2000/svg">
<path fill-rule="evenodd" clip-rule="evenodd" d="M12 2.25C12.4142 2.25 12.75 1.91421 12.75 1.5C12.75 1.08579 12.4142 0.75 12 0.75H6C5.58579 0.75 5.25 1.08579 5.25 1.5C5.25 1.91421 5.58579 2.25 6 2.25L12 2.25ZM17.75 4C17.75 4.41421 17.4142 4.75 17 4.75H16.6987L15.8814 16.1954L15.8814 16.1956C15.7783 17.6348 14.581 18.75 13.1383 18.75H4.85831C3.41827 18.75 2.22257 17.6388 2.11539 16.2028L2.11535 16.2022L1.26965 4.75H1C0.585787 4.75 0.25 4.41421 0.25 4C0.25 3.58579 0.585787 3.25 1 3.25L1.96631 3.25H16.0003L16.0009 3.25H17C17.4142 3.25 17.75 3.58579 17.75 4ZM2.77373 4.75H15.1948L14.3852 16.0884L14.3852 16.0886C14.3382 16.7433 13.7936 17.25 13.1383 17.25H4.85831C4.20444 17.25 3.6602 16.7453 3.61125 16.0915L3.61123 16.0912L2.77373 4.75ZM11.75 9C11.75 8.58579 11.4142 8.25 11 8.25C10.5858 8.25 10.25 8.58579 10.25 9V13C10.25 13.4142 10.5858 13.75 11 13.75C11.4142 13.75 11.75 13.4142 11.75 13V9ZM7.5 8.25C7.91421 8.25 8.25 8.58579 8.25 9V13C8.25 13.4142 7.91421 13.75 7.5 13.75C7.08579 13.75 6.75 13.4142 6.75 13V9C6.75 8.58579 7.08579 8.25 7.5 8.25Z" fill="white"/>
</svg>
