<svg width="22" height="22" viewBox="0 0 22 22" fill="none" xmlns="http://www.w3.org/2000/svg">
<path fill-rule="evenodd" clip-rule="evenodd" d="M4.45926 4.45927C8.07162 0.84691 13.9284 0.846913 17.5407 4.45926L17.5411 4.45961C21.1531 8.072 21.153 13.9285 17.5407 17.5407C13.9284 21.1531 8.0716 21.1531 4.45927 17.5407L3.94722 18.0528L4.45927 17.5407C0.846911 13.9284 0.846913 8.0716 4.45926 4.45927ZM3.39861 3.39861C7.59644 -0.799231 14.4023 -0.799537 18.6005 3.3977L18.6014 3.39861C22.7995 7.59675 22.7995 14.4033 18.6014 18.6014C14.4033 22.7995 7.59672 22.7995 3.39861 18.6014C-0.799534 14.4033 -0.799536 7.59672 3.39861 3.39861ZM11.75 5C11.75 4.58579 11.4142 4.25 11 4.25C10.5858 4.25 10.25 4.58579 10.25 5L10.25 12.1893L8.53033 10.4697C8.23744 10.1768 7.76256 10.1768 7.46967 10.4697C7.17678 10.7626 7.17678 11.2374 7.46967 11.5303L10.4697 14.5303C10.6126 14.6733 10.7989 14.7464 10.9862 14.7499C10.9954 14.75 11.0046 14.75 11.0138 14.7499C11.1097 14.7481 11.2013 14.7284 11.2851 14.6939C11.3743 14.6573 11.4579 14.6028 11.5303 14.5303L14.5303 11.5303C14.8232 11.2374 14.8232 10.7626 14.5303 10.4697C14.2374 10.1768 13.7626 10.1768 13.4697 10.4697L11.75 12.1893L11.75 5ZM8.00073 15.25C7.58652 15.25 7.25073 15.5858 7.25073 16C7.25073 16.4142 7.58652 16.75 8.00073 16.75H14.0007C14.4149 16.75 14.7507 16.4142 14.7507 16C14.7507 15.5858 14.4149 15.25 14.0007 15.25H8.00073Z" fill="white"/>
</svg>
