<svg width="19" height="19" viewBox="0 0 19 19" fill="none" xmlns="http://www.w3.org/2000/svg">
<path fill-rule="evenodd" clip-rule="evenodd" d="M13.2533 0.27664C14.4628 0.127598 15.6993 0.601732 16.9707 1.75449L16.9721 1.75576C18.2442 2.91498 18.8291 4.09562 18.7414 5.30486C18.6568 6.47113 17.9561 7.45452 17.1616 8.26325L17.1614 8.26351L8.4406 17.1582C8.19819 17.4126 7.87153 17.6283 7.56151 17.7881C7.24697 17.9501 6.88593 18.0872 6.55022 18.1448L6.54539 18.1456L6.54539 18.1456L3.12432 18.7086L3.12324 18.7088L3.12321 18.7088C2.31618 18.8426 1.54261 18.6494 0.987631 18.1422C0.429184 17.6319 0.175631 16.8793 0.268923 16.0702L0.269198 16.0678L0.66243 12.7497L0.664297 12.7352C0.71031 12.4026 0.83817 12.0436 0.98852 11.7329C1.13865 11.4227 1.34262 11.0958 1.58225 10.85L1.58375 10.8484L10.3092 1.9489L10.3098 1.94836C11.1089 1.13495 12.079 0.421334 13.2533 0.27664ZM11.3801 2.99932L11.3798 2.99958L9.69497 4.71801C9.717 4.77242 9.73296 4.8303 9.74189 4.89095C10.0902 7.25687 11.8933 9.02141 14.0794 9.25441L14.0882 9.2554L16.0908 7.21284L16.0914 7.2123C16.806 6.48491 17.1998 5.82469 17.2453 5.19633C17.2878 4.61096 17.0386 3.84602 15.9626 2.86519C14.8962 1.8985 14.0763 1.68657 13.4367 1.76538C12.7618 1.84854 12.09 2.27672 11.3801 2.99932ZM3.7955 10.7351L8.44632 5.99157C9.0665 8.18861 10.723 9.91044 12.8373 10.5312L8.2601 15.1997L3.7955 10.7351ZM2.74531 11.8063L2.65632 11.897L2.65575 11.8976C2.56598 11.9899 2.44608 12.1645 2.33871 12.3864C2.23299 12.6048 2.16986 12.8062 2.15099 12.9348L1.75905 16.242L1.75893 16.2431C1.7144 16.6316 1.83806 16.8874 1.99951 17.0349C2.16431 17.1855 2.45308 17.2996 2.87848 17.2289L2.8796 17.2287L6.29695 16.6663L6.299 16.6659C6.44154 16.6412 6.65342 16.5685 6.87453 16.4546C7.00087 16.3895 7.11009 16.3213 7.19687 16.2578L2.74531 11.8063Z" fill="white"/>
</svg>
