<svg width="24" height="24" viewBox="0 0 24 24" fill="none" xmlns="http://www.w3.org/2000/svg">
<path fill-rule="evenodd" clip-rule="evenodd" d="M22.5303 2.53033C22.8232 2.23744 22.8232 1.76256 22.5303 1.46967C22.2374 1.17678 21.7626 1.17678 21.4697 1.46967L17.9028 5.03655C16.1141 3.88283 14.1049 3.25 12 3.25C8.09398 3.25 4.51772 5.42915 2.06779 9.07224C1.50562 9.90567 1.25 10.9749 1.25 12C1.25 13.0249 1.50552 14.0939 2.06746 14.9273C2.88694 16.146 3.83246 17.2008 4.8742 18.0651L1.46967 21.4697C1.17678 21.7626 1.17678 22.2374 1.46967 22.5303C1.76256 22.8232 2.23744 22.8232 2.53033 22.5303L6.09722 18.9634C7.88594 20.1172 9.89509 20.75 12 20.75C15.906 20.75 19.4823 18.5708 21.9322 14.9278C22.4944 14.0943 22.75 13.0251 22.75 12C22.75 10.9751 22.4945 9.90609 21.9325 9.07273C21.1131 7.85405 20.1675 6.79917 19.1258 5.93486L22.5303 2.53033ZM16.8141 6.12519C15.3167 5.2244 13.6791 4.75 12 4.75C8.69107 4.75 5.5429 6.5924 3.31221 9.90974L3.31154 9.91073C2.95417 10.4404 2.75 11.1981 2.75 12C2.75 12.8019 2.95417 13.5596 3.31154 14.0893L3.31221 14.0903C4.0877 15.2435 4.97407 16.2185 5.93953 16.9998L8.15171 14.7876C7.58431 14.0051 7.25 13.0421 7.25 12C7.25 9.3735 9.3735 7.25 12 7.25C13.0421 7.25 14.0051 7.58431 14.7876 8.15171L16.8141 6.12519ZM15.8483 9.21237L18.0605 7.00019C19.0259 7.78149 19.9123 8.75649 20.6878 9.90974L20.6885 9.91073C21.0458 10.4404 21.25 11.1981 21.25 12C21.25 12.8019 21.0458 13.5596 20.6885 14.0893L20.6878 14.0903C18.4571 17.4076 15.3089 19.25 12 19.25C10.3209 19.25 8.68326 18.7756 7.18585 17.8748L9.21237 15.8483C9.9949 16.4157 10.9579 16.75 12 16.75C14.6265 16.75 16.75 14.6265 16.75 12C16.75 10.9579 16.4157 9.9949 15.8483 9.21237ZM13.7071 9.23228C13.2113 8.92636 12.6267 8.75 12 8.75C10.2019 8.75 8.75 10.2019 8.75 12C8.75 12.6267 8.92636 13.2113 9.23228 13.7071L13.7071 9.23228ZM10.2929 14.7677L14.7677 10.2929C15.0736 10.7887 15.25 11.3733 15.25 12C15.25 13.7981 13.7981 15.25 12 15.25C11.3733 15.25 10.7887 15.0736 10.2929 14.7677Z" fill="#66768E"/>
</svg>
