<svg width="17" height="20" viewBox="0 0 17 20" fill="none" xmlns="http://www.w3.org/2000/svg">
<path fill-rule="evenodd" clip-rule="evenodd" d="M9.08333 2.4165H6.45833C4.79135 2.4165 3.81575 2.80846 3.2225 3.50641C2.60236 4.23598 2.25 5.46825 2.25 7.49984V12.4998C2.25 14.5314 2.60236 15.7637 3.2225 16.4933C3.81575 17.1912 4.79135 17.5832 6.45833 17.5832H10.7083C12.3753 17.5832 13.3509 17.1912 13.9442 16.4933C14.5643 15.7637 14.9167 14.5314 14.9167 12.4998V12.4903V12.4808V12.4712V12.4617V12.4521V12.4426V12.433V12.4235V12.4139V12.4044V12.3948V12.3852V12.3757V12.3661V12.3565V12.3469V12.3374V12.3278V12.3182V12.3086V12.299V12.2894V12.2799V12.2703V12.2607V12.2511V12.2415V12.2319V12.2222V12.2126V12.203V12.1934V12.1838V12.1742V12.1646V12.1549V12.1453V12.1357V12.126V12.1164V12.1068V12.0971V12.0875V12.0779V12.0682V12.0586V12.0489V12.0393V12.0296V12.02V12.0103V12.0006V11.991V11.9813V11.9716V11.962V11.9523V11.9426V11.933V11.9233V11.9136V11.9039V11.8942V11.8846V11.8749V11.8652V11.8555V11.8458V11.8361V11.8264V11.8167V11.807V11.7973V11.7876V11.7779V11.7682V11.7585V11.7488V11.739V11.7293V11.7196V11.7099V11.7002V11.6904V11.6807V11.671V11.6613V11.6515V11.6418V11.6321V11.6223V11.6126V11.6028V11.5931V11.5834V11.5736V11.5639V11.5541V11.5444V11.5346V11.5249V11.5151V11.5054V11.4956V11.4858V11.4761V11.4663V11.4565V11.4468V11.437V11.4272V11.4175V11.4077V11.3979V11.3882V11.3784V11.3686V11.3588V11.349V11.3393V11.3295V11.3197V11.3099V11.3001V11.2903V11.2805V11.2707V11.2609V11.2511V11.2414V11.2316V11.2218V11.212V11.2022V11.1923V11.1825V11.1727V11.1629V11.1531V11.1433V11.1335V11.1237V11.1139V11.1041V11.0942V11.0844V11.0746V11.0648V11.055V11.0452V11.0353V11.0255V11.0157V11.0059V10.996V10.9862V10.9764V10.9665V10.9567V10.9469V10.937V10.9272V10.9174V10.9075V10.8977V10.8879V10.878V10.8682V10.8583V10.8485V10.8387V10.8288V10.819V10.8091V10.7993V10.7894V10.7796V10.7697V10.7599V10.75V10.7402V10.7303V10.7205V10.7106V10.7008V10.6909V10.6811V10.6712V10.6614V10.6515V10.6416V10.6318V10.6219V10.6121V10.6022V10.5923V10.5825V10.5726V10.5627V10.5529V10.543V10.5331V10.5233V10.5134V10.5035V10.4937V10.4838V10.4739V10.4641V10.4542V10.4443V10.4345V10.4246V10.4147V10.4048V10.395V10.3851V10.3752V10.3654V10.3555V10.3456V10.3357V10.3259V10.316V10.3061V10.2962V10.2864V10.2765V10.2666V10.2567V10.2468V10.237V10.2271V10.2172V10.2073V10.1974V10.1876V10.1777V10.1678V10.1579V10.1481V10.1382V10.1283V10.1184V10.1085V10.0986V10.0888V10.0789V10.069V10.0591V10.0492V10.0394V10.0295V10.0196V10.0097V9.99984V9.98996V9.98007V9.97019V9.96031V9.95043V9.94055V9.93067V9.92079V9.91091V9.90103V9.89115V9.88126V9.87138V9.8615V9.85162V9.84174V9.83186V9.82198V9.81211V9.80223V9.79235V9.78247V9.77259V9.76271V9.75283V9.74296V9.73308V9.7232V9.71332V9.70345V9.69357V9.68369V9.67382V9.66394V9.65407V9.64419V9.63432V9.62444V9.61457V9.6047V9.59483V9.58495V9.57508V9.56521V9.55534V9.54547V9.5356V9.52573V9.51586V9.50599V9.49613V9.48626V9.47639V9.46653V9.45666V9.44679V9.43693V9.42707V9.4172V9.40734V9.39748V9.38762V9.37776V9.3679V9.35804V9.34818V9.33832V9.32846V9.31861V9.30875V9.2989V9.28904V9.27919V9.26934V9.25949V9.24963V9.23978V9.22993V9.22009V9.21024V9.20039V9.19054V9.1807V9.17085V9.16101V9.15117V9.14133V9.13149V9.12165V9.11181V9.10197V9.09213V9.0823V9.07246V9.06263V9.05279V9.04296V9.03313V9.0233V9.01347V9.00364V8.99382V8.98399V8.97417V8.96434V8.95452V8.9447V8.93488V8.92506V8.91524V8.90543V8.89561V8.8858V8.87598V8.86617V8.85636V8.84655V8.83674V8.82694V8.81713V8.80733V8.79752V8.78772V8.77792V8.76812V8.75833V8.74853V8.73873V8.72894V8.71915V8.70936V8.69957V8.68978V8.67999V8.67021V8.66042V8.65064V8.64086V8.63108V8.6213V8.61152V8.60175V8.59197V8.5822V8.57243V8.56266V8.55289V8.54313V8.53336V8.5236V8.51384V8.50408V8.49432V8.48456V8.47481V8.46506V8.4553V8.44555V8.43581V8.42606V8.41631V8.40657V8.39683V8.38709V8.37735V8.36762V8.35788V8.34815V8.33842V8.32869V8.31896V8.30924V8.29951V8.28979V8.28007V8.27035V8.26064V8.25092V8.24984H12.75C11.6147 8.24984 10.6192 8.0703 9.94102 7.39215C9.26287 6.714 9.08333 5.71847 9.08333 4.58317V2.4165ZM16.197 6.96951C16.2104 6.98291 16.2232 6.99674 16.2354 7.01096C16.346 7.13945 16.4079 7.29946 16.4158 7.46384C16.4165 7.47778 16.4168 7.49174 16.4167 7.50573M16.4167 7.50573V7.50937V7.51891V7.52845V7.538V7.54754V7.55709V7.56664V7.5762V7.58575V7.59531V7.60488V7.61444V7.62401V7.63358V7.64315V7.65273V7.6623V7.67188V7.68147V7.69105V7.70064V7.71023V7.71982V7.72942V7.73901V7.74861V7.75822V7.76782V7.77743V7.78704V7.79665V7.80626V7.81588V7.8255V7.83512V7.84475V7.85437V7.864V7.87363V7.88326V7.8929V7.90254V7.91218V7.92182V7.93146V7.94111V7.95076V7.96041V7.97006V7.97972V7.98938V7.99904V8.0087V8.01836V8.02803V8.0377V8.04737V8.05704V8.06672V8.07639V8.08607V8.09575V8.10544V8.11512V8.12481V8.1345V8.14419V8.15388V8.16358V8.17327V8.18297V8.19267V8.20238V8.21208V8.22179V8.2315V8.24121V8.25092V8.26064V8.27035V8.28007V8.28979V8.29951V8.30924V8.31896V8.32869V8.33842V8.34815V8.35788V8.36762V8.37735V8.38709V8.39683V8.40657V8.41631V8.42606V8.43581V8.44555V8.4553V8.46506V8.47481V8.48456V8.49432V8.50408V8.51384V8.5236V8.53336V8.54313V8.55289V8.56266V8.57243V8.5822V8.59197V8.60175V8.61152V8.6213V8.63108V8.64086V8.65064V8.66042V8.67021V8.67999V8.68978V8.69957V8.70936V8.71915V8.72894V8.73873V8.74853V8.75833V8.76812V8.77792V8.78772V8.79752V8.80733V8.81713V8.82694V8.83674V8.84655V8.85636V8.86617V8.87598V8.8858V8.89561V8.90543V8.91524V8.92506V8.93488V8.9447V8.95452V8.96434V8.97417V8.98399V8.99382V9.00364V9.01347V9.0233V9.03313V9.04296V9.05279V9.06263V9.07246V9.0823V9.09213V9.10197V9.11181V9.12165V9.13149V9.14133V9.15117V9.16101V9.17085V9.1807V9.19054V9.20039V9.21024V9.22009V9.22993V9.23978V9.24963V9.25949V9.26934V9.27919V9.28904V9.2989V9.30875V9.31861V9.32846V9.33832V9.34818V9.35804V9.3679V9.37776V9.38762V9.39748V9.40734V9.4172V9.42707V9.43693V9.44679V9.45666V9.46653V9.47639V9.48626V9.49613V9.50599V9.51586V9.52573V9.5356V9.54547V9.55534V9.56521V9.57508V9.58495V9.59483V9.6047V9.61457V9.62444V9.63432V9.64419V9.65407V9.66394V9.67382V9.68369V9.69357V9.70345V9.71332V9.7232V9.73308V9.74296V9.75283V9.76271V9.77259V9.78247V9.79235V9.80223V9.81211V9.82198V9.83186V9.84174V9.85162V9.8615V9.87138V9.88126V9.89115V9.90103V9.91091V9.92079V9.93067V9.94055V9.95043V9.96031V9.97019V9.98007V9.98996V9.99984V10.0097V10.0196V10.0295V10.0394V10.0492V10.0591V10.069V10.0789V10.0888V10.0986V10.1085V10.1184V10.1283V10.1382V10.1481V10.1579V10.1678V10.1777V10.1876V10.1974V10.2073V10.2172V10.2271V10.237V10.2468V10.2567V10.2666V10.2765V10.2864V10.2962V10.3061V10.316V10.3259V10.3357V10.3456V10.3555V10.3654V10.3752V10.3851V10.395V10.4048V10.4147V10.4246V10.4345V10.4443V10.4542V10.4641V10.4739V10.4838V10.4937V10.5035V10.5134V10.5233V10.5331V10.543V10.5529V10.5627V10.5726V10.5825V10.5923V10.6022V10.6121V10.6219V10.6318V10.6416V10.6515V10.6614V10.6712V10.6811V10.6909V10.7008V10.7106V10.7205V10.7303V10.7402V10.75V10.7599V10.7697V10.7796V10.7894V10.7993V10.8091V10.819V10.8288V10.8387V10.8485V10.8583V10.8682V10.878V10.8879V10.8977V10.9075V10.9174V10.9272V10.937V10.9469V10.9567V10.9665V10.9764V10.9862V10.996V11.0059V11.0157V11.0255V11.0353V11.0452V11.055V11.0648V11.0746V11.0844V11.0942V11.1041V11.1139V11.1237V11.1335V11.1433V11.1531V11.1629V11.1727V11.1825V11.1923V11.2022V11.212V11.2218V11.2316V11.2414V11.2511V11.2609V11.2707V11.2805V11.2903V11.3001V11.3099V11.3197V11.3295V11.3393V11.349V11.3588V11.3686V11.3784V11.3882V11.3979V11.4077V11.4175V11.4272V11.437V11.4468V11.4565V11.4663V11.4761V11.4858V11.4956V11.5054V11.5151V11.5249V11.5346V11.5444V11.5541V11.5639V11.5736V11.5834V11.5931V11.6028V11.6126V11.6223V11.6321V11.6418V11.6515V11.6613V11.671V11.6807V11.6904V11.7002V11.7099V11.7196V11.7293V11.739V11.7488V11.7585V11.7682V11.7779V11.7876V11.7973V11.807V11.8167V11.8264V11.8361V11.8458V11.8555V11.8652V11.8749V11.8846V11.8942V11.9039V11.9136V11.9233V11.933V11.9426V11.9523V11.962V11.9716V11.9813V11.991V12.0006V12.0103V12.02V12.0296V12.0393V12.0489V12.0586V12.0682V12.0779V12.0875V12.0971V12.1068V12.1164V12.126V12.1357V12.1453V12.1549V12.1646V12.1742V12.1838V12.1934V12.203V12.2126V12.2222V12.2319V12.2415V12.2511V12.2607V12.2703V12.2799V12.2894V12.299V12.3086V12.3182V12.3278V12.3374V12.3469V12.3565V12.3661V12.3757V12.3852V12.3948V12.4044V12.4139V12.4235V12.433V12.4426V12.4521V12.4617V12.4712V12.4808V12.4903V12.4998C16.4167 14.6349 16.0607 16.3193 15.0871 17.4647C14.0866 18.6418 12.583 19.0832 10.7083 19.0832H6.45833C4.58364 19.0832 3.08008 18.6418 2.07959 17.4647C1.10598 16.3193 0.75 14.6349 0.75 12.4998V7.49984C0.75 5.36476 1.10598 3.68036 2.07959 2.53493C3.08008 1.35788 4.58364 0.916504 6.45833 0.916504H9.82743H9.83333C9.8454 0.916504 9.8574 0.916791 9.86933 0.917354M10.3645 1.13698L16.197 6.96951L10.3645 1.13698ZM10.5833 4.58317V3.47716L13.856 6.74984H12.75C11.6978 6.74984 11.235 6.5648 11.0017 6.33149C10.7684 6.09818 10.5833 5.63537 10.5833 4.58317ZM10.9194 13.7929C11.3336 13.7929 11.6694 13.4571 11.6694 13.0429C11.6694 12.6287 11.3336 12.2929 10.9194 12.2929H9.45973V10.8332C9.45973 10.419 9.12394 10.0832 8.70973 10.0832C8.29551 10.0832 7.95973 10.419 7.95973 10.8332V12.2929H6.50002C6.0858 12.2929 5.75002 12.6287 5.75002 13.0429C5.75002 13.4571 6.0858 13.7929 6.50002 13.7929H7.95973V15.2526C7.95973 15.6668 8.29551 16.0026 8.70973 16.0026C9.12394 16.0026 9.45973 15.6668 9.45973 15.2526V13.7929H10.9194Z" fill="#CCD4E0"/>
</svg>
