<svg width="19" height="16" viewBox="0 0 19 16" fill="none" xmlns="http://www.w3.org/2000/svg">
<path fill-rule="evenodd" clip-rule="evenodd" d="M6.60714 3.99972C6.60714 5.18319 7.56653 6.14258 8.75 6.14258C9.93347 6.14258 10.8929 5.18319 10.8929 3.99972C10.8929 2.81625 9.93347 1.85686 8.75 1.85686C7.56653 1.85686 6.60714 2.81625 6.60714 3.99972ZM8.75 7.85686C6.87638 7.85686 5.31478 6.52097 4.96573 4.74972H1C0.585786 4.74972 0.25 4.41393 0.25 3.99972C0.25 3.58551 0.585786 3.24972 1 3.24972H4.96573C5.31478 1.47847 6.87638 0.142578 8.75 0.142578C10.8802 0.142578 12.6071 1.86948 12.6071 3.99972C12.6071 6.12996 10.8802 7.85686 8.75 7.85686ZM14.5 3.24972C14.0858 3.24972 13.75 3.58551 13.75 3.99972C13.75 4.41393 14.0858 4.74972 14.5 4.74972H18C18.4142 4.74972 18.75 4.41393 18.75 3.99972C18.75 3.58551 18.4142 3.24972 18 3.24972L14.5 3.24972ZM17.0343 12.7497C16.6852 14.521 15.1236 15.8569 13.25 15.8569C11.1198 15.8569 9.39286 14.13 9.39286 11.9997C9.39286 9.86948 11.1198 8.14258 13.25 8.14258C15.1236 8.14258 16.6852 9.47847 17.0343 11.2497H18C18.4142 11.2497 18.75 11.5855 18.75 11.9997C18.75 12.4139 18.4142 12.7497 18 12.7497H17.0343ZM0.25 11.9997C0.25 11.5855 0.585786 11.2497 1 11.2497H8C8.41421 11.2497 8.75 11.5855 8.75 11.9997C8.75 12.4139 8.41421 12.7497 8 12.7497H1C0.585786 12.7497 0.25 12.4139 0.25 11.9997ZM13.25 14.1426C12.0665 14.1426 11.1071 13.1832 11.1071 11.9997C11.1071 10.8163 12.0665 9.85686 13.25 9.85686C14.4335 9.85686 15.3929 10.8163 15.3929 11.9997C15.3929 13.1832 14.4335 14.1426 13.25 14.1426Z" fill="#66768E"/>
</svg>
