<svg width="24" height="24" viewBox="0 0 24 24" fill="none" xmlns="http://www.w3.org/2000/svg">
<rect width="24" height="24" rx="12" fill="#414E62"/>
<path fill-rule="evenodd" clip-rule="evenodd" d="M6.16675 7.08301C5.75253 7.08301 5.41675 7.41879 5.41675 7.83301C5.41675 8.24722 5.75253 8.58301 6.16675 8.58301H17.8334C18.2476 8.58301 18.5834 8.24722 18.5834 7.83301C18.5834 7.41879 18.2476 7.08301 17.8334 7.08301H6.16675ZM5.41675 11.9997C5.41675 11.5855 5.75253 11.2497 6.16675 11.2497H17.8334C18.2476 11.2497 18.5834 11.5855 18.5834 11.9997C18.5834 12.4139 18.2476 12.7497 17.8334 12.7497H6.16675C5.75253 12.7497 5.41675 12.4139 5.41675 11.9997ZM5.41675 16.1663C5.41675 15.7521 5.75253 15.4163 6.16675 15.4163H17.8334C18.2476 15.4163 18.5834 15.7521 18.5834 16.1663C18.5834 16.5806 18.2476 16.9163 17.8334 16.9163H6.16675C5.75253 16.9163 5.41675 16.5806 5.41675 16.1663Z" fill="#CCD4E0"/>
</svg>
