<svg width="20" height="20" viewBox="0 0 20 20" fill="none" xmlns="http://www.w3.org/2000/svg">
<path fill-rule="evenodd" clip-rule="evenodd" d="M8.26771 2.81124C9.32634 2.1443 10.6738 2.1443 11.7325 2.81124L16.0658 5.54124C17.0104 6.13633 17.5834 7.17461 17.5834 8.29103V14.3334C17.5834 16.1283 16.1283 17.5834 14.3334 17.5834H9.56148H5.66675C3.87182 17.5834 2.41675 16.1283 2.41675 14.3334V8.29103C2.41675 7.17461 2.98978 6.13633 3.93437 5.54124L8.26771 2.81124ZM12.532 1.5421C10.9848 0.567346 9.01538 0.567347 7.46815 1.5421L3.13482 4.2721C1.75426 5.14186 0.916748 6.65934 0.916748 8.29103V14.3334C0.916748 16.9568 3.04339 19.0834 5.66675 19.0834H9.56148H14.3334C16.9568 19.0834 19.0834 16.9568 19.0834 14.3334V8.29103C19.0834 6.65934 18.2459 5.14185 16.8653 4.2721L12.532 1.5421ZM8.33341 13.8334C7.9192 13.8334 7.58341 14.1692 7.58341 14.5834C7.58341 14.9976 7.9192 15.3334 8.33341 15.3334H11.6667C12.081 15.3334 12.4167 14.9976 12.4167 14.5834C12.4167 14.1692 12.081 13.8334 11.6667 13.8334H8.33341Z" fill="#CCD4E0"/>
</svg>
