<svg width="22" height="22" viewBox="0 0 22 22" fill="none" xmlns="http://www.w3.org/2000/svg">
<path fill-rule="evenodd" clip-rule="evenodd" d="M8 0.25C5.42603 0.25 3.42914 0.760201 2.09467 2.09467C0.760201 3.42914 0.25 5.42603 0.25 8V14C0.25 16.574 0.760201 18.5709 2.09467 19.9053C3.42914 21.2398 5.42603 21.75 8 21.75H14C14.2842 21.75 14.5615 21.7438 14.8315 21.7309C14.9722 21.7632 15.1206 21.7546 15.2576 21.7046C17.2313 21.5536 18.7968 21.0138 19.9053 19.9053C21.1764 18.6343 21.6997 16.7622 21.7465 14.3629C21.7504 14.3228 21.751 14.2824 21.7485 14.2423C21.7495 14.1621 21.75 14.0813 21.75 14V8C21.75 5.42603 21.2398 3.42914 19.9053 2.09467C18.5709 0.760201 16.574 0.25 14 0.25H8ZM20.25 12.5729V8C20.25 5.57397 19.7602 4.07086 18.8447 3.15533C17.9291 2.2398 16.426 1.75 14 1.75H8C5.57397 1.75 4.07086 2.2398 3.15533 3.15533C2.2398 4.07086 1.75 5.57397 1.75 8V14C1.75 14.9921 1.83192 15.8299 1.99137 16.5363L5.45201 12.8804L5.45234 12.88C6.24632 12.0395 7.55188 12.0406 8.34613 12.8797L9.67255 14.2809L14.5407 9.77022L14.5411 9.7698C15.2882 9.07625 16.4775 9.07729 17.2246 9.76957L20.25 12.5729ZM2.58038 18.096C2.74788 18.3811 2.93981 18.6291 3.15533 18.8447C4.07086 19.7602 5.57397 20.25 8 20.25H13.2573L7.25678 13.9108C7.05338 13.696 6.74392 13.697 6.54269 13.9102L6.54203 13.9108L2.58038 18.096ZM15.2739 20.1984C16.971 20.0506 18.1014 19.5879 18.8447 18.8447C19.6812 18.0081 20.1623 16.6811 20.2391 14.6077L16.2051 10.8698C16.0323 10.7097 15.7323 10.7106 15.5616 10.8692L15.5609 10.8698L10.7038 15.3704L15.2739 20.1984ZM8.2955 6.7045C7.85615 6.26516 7.14385 6.26516 6.7045 6.7045C6.26516 7.14385 6.26516 7.85615 6.7045 8.2955C7.14385 8.73484 7.85615 8.73484 8.2955 8.2955C8.73484 7.85615 8.73484 7.14385 8.2955 6.7045Z" fill="#66768E"/>
</svg>
