<svg width="24" height="24" viewBox="0 0 24 24" fill="none" xmlns="http://www.w3.org/2000/svg">
<rect width="24" height="24" rx="12" fill="#414E62"/>
<path fill-rule="evenodd" clip-rule="evenodd" d="M10.8637 7.30317C11.1566 7.59606 11.1566 8.07093 10.8637 8.36383L7.97741 11.2502H17.8334C18.2476 11.2502 18.5834 11.5859 18.5834 12.0002C18.5834 12.4144 18.2476 12.7502 17.8334 12.7502H7.97741L10.8637 15.6365C11.1566 15.9294 11.1566 16.4043 10.8637 16.6972C10.5709 16.9901 10.096 16.9901 9.80308 16.6972L5.63642 12.5305C5.56451 12.4586 5.51026 12.3757 5.47366 12.2873C5.43699 12.1988 5.41675 12.1019 5.41675 12.0002C5.41675 11.8082 5.48997 11.6163 5.63642 11.4698L9.80308 7.30317C10.096 7.01027 10.5709 7.01027 10.8637 7.30317Z" fill="#CCD4E0"/>
</svg>
