<svg width="16" height="12" viewBox="0 0 16 12" fill="none" xmlns="http://www.w3.org/2000/svg">
<path fill-rule="evenodd" clip-rule="evenodd" d="M6.53033 0.46967C6.82322 0.762563 6.82322 1.23744 6.53033 1.53033L2.81066 5.25H15C15.4142 5.25 15.75 5.58579 15.75 6C15.75 6.41421 15.4142 6.75 15 6.75H2.81066L6.53033 10.4697C6.82322 10.7626 6.82322 11.2374 6.53033 11.5303C6.23744 11.8232 5.76256 11.8232 5.46967 11.5303L0.46967 6.53033C0.397763 6.45842 0.343509 6.37555 0.306909 6.28709C0.270239 6.19866 0.25 6.10169 0.25 6C0.25 5.89831 0.270239 5.80134 0.306909 5.71291C0.343509 5.62445 0.397763 5.54158 0.46967 5.46967L5.46967 0.46967C5.76256 0.176777 6.23744 0.176777 6.53033 0.46967Z" fill="#66768E"/>
</svg>
