<svg width="20" height="20" viewBox="0 0 20 20" fill="none" xmlns="http://www.w3.org/2000/svg">
<path fill-rule="evenodd" clip-rule="evenodd" d="M2.11608 2.11608C2.60419 1.62797 3.39531 1.62797 3.88342 2.11608C4.37153 2.60419 4.37153 3.39531 3.88342 3.88342C3.39531 4.37153 2.60419 4.37153 2.11608 3.88342C1.62797 3.39531 1.62797 2.60419 2.11608 2.11608ZM1.05542 1.05542C2.12931 -0.0184733 3.87019 -0.0184733 4.94408 1.05542C6.01797 2.12931 6.01797 3.87019 4.94408 4.94408C3.87019 6.01797 2.12931 6.01797 1.05542 4.94408C-0.0184733 3.87019 -0.0184733 2.12931 1.05542 1.05542ZM2.11608 9.11632C2.60419 8.62822 3.39531 8.62822 3.88342 9.11632C4.37153 9.60443 4.37153 10.3956 3.88342 10.8837C3.39531 11.3718 2.60419 11.3718 2.11608 10.8837C1.62797 10.3956 1.62797 9.60443 2.11608 9.11632ZM1.05542 8.05566C2.12931 6.98177 3.87019 6.98177 4.94408 8.05566C6.01797 9.12956 6.01797 10.8704 4.94408 11.9443C3.87019 13.0182 2.12931 13.0182 1.05542 11.9443C-0.0184733 10.8704 -0.0184733 9.12956 1.05542 8.05566ZM3.88342 16.1163C3.39531 15.6282 2.60419 15.6282 2.11608 16.1163C1.62797 16.6044 1.62797 17.3956 2.11608 17.8837C2.60419 18.3718 3.39531 18.3718 3.88342 17.8837C4.37153 17.3956 4.37153 16.6044 3.88342 16.1163ZM4.94408 15.0557C3.87019 13.9818 2.12931 13.9818 1.05542 15.0557C-0.0184733 16.1296 -0.0184733 17.8704 1.05542 18.9443C2.12931 20.0182 3.87019 20.0182 4.94408 18.9443C6.01797 17.8704 6.01797 16.1296 4.94408 15.0557ZM8.99976 9.25C8.58554 9.25 8.24976 9.58579 8.24976 10C8.24976 10.4142 8.58554 10.75 8.99976 10.75H18.9998C19.414 10.75 19.7498 10.4142 19.7498 10C19.7498 9.58579 19.414 9.25 18.9998 9.25H8.99976ZM8.24976 3C8.24976 2.58579 8.58554 2.25 8.99976 2.25H18.9998C19.414 2.25 19.7498 2.58579 19.7498 3C19.7498 3.41421 19.414 3.75 18.9998 3.75H8.99976C8.58554 3.75 8.24976 3.41421 8.24976 3ZM8.99976 16.25C8.58554 16.25 8.24976 16.5858 8.24976 17C8.24976 17.4142 8.58554 17.75 8.99976 17.75H18.9998C19.414 17.75 19.7498 17.4142 19.7498 17C19.7498 16.5858 19.414 16.25 18.9998 16.25H8.99976Z" fill="#66768E"/>
</svg>
