<svg width="18" height="22" viewBox="0 0 18 22" fill="none" xmlns="http://www.w3.org/2000/svg">
<path fill-rule="evenodd" clip-rule="evenodd" d="M8.99999 0.25C4.18715 0.25 0.25 4.0487 0.25 8.77733C0.25 10.4016 0.804564 12.018 1.58689 13.4985C2.37165 14.9836 3.40903 16.376 4.43126 17.5651C5.45532 18.7563 6.47716 19.7585 7.24214 20.4624C7.62514 20.8148 7.94501 21.0937 8.17026 21.2853C8.28291 21.3811 8.37199 21.4552 8.43356 21.5059C8.46435 21.5312 8.48827 21.5507 8.50483 21.5642L8.52409 21.5797L8.52947 21.584L8.53107 21.5853L8.5316 21.5857C8.53179 21.5859 8.53195 21.586 8.99999 21L8.53195 21.586C8.80568 21.8046 9.1943 21.8046 9.46804 21.586L8.99999 21C9.46804 21.586 9.4682 21.5859 9.46838 21.5857L9.46891 21.5853L9.47052 21.584L9.4759 21.5797L9.49516 21.5642C9.51172 21.5507 9.53564 21.5312 9.56643 21.5059C9.628 21.4552 9.71707 21.3811 9.82973 21.2853C10.055 21.0937 10.3749 20.8148 10.7578 20.4624C11.5228 19.7585 12.5447 18.7563 13.5687 17.5651C14.591 16.376 15.6283 14.9836 16.4131 13.4985C17.1954 12.018 17.75 10.4016 17.75 8.77733C17.75 4.0487 13.8128 0.25 8.99999 0.25ZM9.74214 19.3586C9.4505 19.627 9.19793 19.85 8.99999 20.0209C8.80206 19.85 8.54949 19.627 8.25784 19.3586C7.52283 18.6823 6.54467 17.7225 5.56873 16.5872C4.59096 15.4498 3.62835 14.1512 2.91311 12.7976C2.19544 11.4395 1.75 10.0697 1.75 8.77733C1.75 4.91663 4.97551 1.75 8.99999 1.75C13.0245 1.75 16.25 4.91663 16.25 8.77733C16.25 10.0697 15.8046 11.4395 15.0869 12.7976C14.3716 14.1512 13.409 15.4498 12.4313 16.5872C11.4553 17.7225 10.4772 18.6823 9.74214 19.3586ZM6.7019 6.7019C7.97111 5.4327 10.0289 5.4327 11.2981 6.7019C12.5673 7.97111 12.5673 10.0289 11.2981 11.2981C10.0289 12.5673 7.97111 12.5673 6.7019 11.2981C5.4327 10.0289 5.4327 7.97111 6.7019 6.7019ZM5.64124 5.64124C7.49614 3.78635 10.5035 3.78625 12.3585 5.64096L12.3588 5.64124C14.2137 7.49623 14.2137 10.5038 12.3588 12.3588C10.5038 14.2137 7.49623 14.2137 5.64124 12.3588C3.78625 10.5038 3.78625 7.49623 5.64124 5.64124Z" fill="#66768E"/>
</svg>
