<svg width="22" height="20" viewBox="0 0 22 20" fill="none" xmlns="http://www.w3.org/2000/svg">
<path fill-rule="evenodd" clip-rule="evenodd" d="M2.50172 2.45747C2.01624 2.8944 1.75 3.70628 1.75 5.5V14.5C1.75 16.2937 2.01624 17.1056 2.50172 17.5425C3.01582 18.0052 3.98599 18.25 6 18.25H16C18.014 18.25 18.9842 18.0052 19.4983 17.5425C19.9838 17.1056 20.25 16.2937 20.25 14.5V9.1C20.25 7.30628 19.9838 6.4944 19.4983 6.05747C18.9842 5.59478 18.014 5.35 16 5.35H13C12.4414 5.35 11.9931 5.27648 11.6091 5.06759C11.258 4.87661 11.0268 4.6015 10.8576 4.40032L10.827 4.36389L10.8238 4.36015L10.8238 4.36014L9.32383 2.56014C9.02279 2.19889 8.8854 2.04778 8.69205 1.94325C8.50793 1.8437 8.19391 1.75 7.5 1.75H6C3.98599 1.75 3.01582 1.99478 2.50172 2.45747ZM1.49828 1.34253C2.48418 0.455219 4.01401 0.25 6 0.25H7.5C8.30609 0.25 8.90708 0.354303 9.40545 0.623753C9.8755 0.877892 10.1825 1.24692 10.4444 1.56176L10.4762 1.59986L11.9746 3.39795C12.1817 3.64316 12.2439 3.70531 12.3259 3.74991C12.3968 3.78852 12.5586 3.85 13 3.85H16C17.986 3.85 19.5158 4.05522 20.5017 4.94253C21.5162 5.8556 21.75 7.29372 21.75 9.1V14.5C21.75 16.3063 21.5162 17.7444 20.5017 18.6575C19.5158 19.5448 17.986 19.75 16 19.75H6C4.01401 19.75 2.48418 19.5448 1.49828 18.6575C0.483756 17.7444 0.25 16.3063 0.25 14.5V5.5C0.25 3.69372 0.483756 2.2556 1.49828 1.34253ZM14.0533 11.6516C14.0533 12.0659 13.7175 12.4016 13.3033 12.4016H11.4016V14.3033C11.4016 14.7175 11.0658 15.0533 10.6516 15.0533C10.2374 15.0533 9.90161 14.7175 9.90161 14.3033V12.4016H7.99996C7.58575 12.4016 7.24996 12.0659 7.24996 11.6516C7.24996 11.2374 7.58575 10.9017 7.99996 10.9017H9.90161V9C9.90161 8.58579 10.2374 8.25 10.6516 8.25C11.0658 8.25 11.4016 8.58579 11.4016 9V10.9017H13.3033C13.7175 10.9017 14.0533 11.2374 14.0533 11.6516Z" fill="#66768E"/>
</svg>
