<svg width="22" height="18" viewBox="0 0 22 18" fill="none" xmlns="http://www.w3.org/2000/svg">
<path fill-rule="evenodd" clip-rule="evenodd" d="M11 0.25C7.09398 0.25 3.51772 2.42915 1.06779 6.07224C0.505617 6.90567 0.25 7.97491 0.25 9C0.25 10.0249 0.505517 11.0939 1.06746 11.9273C3.51739 15.5706 7.0938 17.75 11 17.75C14.906 17.75 18.4823 15.5708 20.9322 11.9278C21.4944 11.0943 21.75 10.0251 21.75 9C21.75 7.97512 21.4945 6.90609 20.9325 6.07273C18.4826 2.42935 14.9062 0.25 11 0.25ZM2.31221 6.90974C4.5429 3.5924 7.69107 1.75 11 1.75C14.3089 1.75 17.4571 3.5924 19.6878 6.90974L19.6885 6.91073C20.0458 7.44037 20.25 8.1981 20.25 9C20.25 9.8019 20.0458 10.5596 19.6885 11.0893L19.6878 11.0903C17.4571 14.4076 14.3089 16.25 11 16.25C7.69107 16.25 4.5429 14.4076 2.31221 11.0903L2.31154 11.0893C1.95417 10.5596 1.75 9.8019 1.75 9C1.75 8.1981 1.95417 7.44037 2.31154 6.91073L2.31221 6.90974ZM7.75 9C7.75 7.20192 9.20192 5.75 11 5.75C12.7981 5.75 14.25 7.20192 14.25 9C14.25 10.7981 12.7981 12.25 11 12.25C9.20192 12.25 7.75 10.7981 7.75 9ZM11 4.25C8.3735 4.25 6.25 6.3735 6.25 9C6.25 11.6265 8.3735 13.75 11 13.75C13.6265 13.75 15.75 11.6265 15.75 9C15.75 6.3735 13.6265 4.25 11 4.25Z" fill="#66768E"/>
</svg>
