<svg width="24" height="24" viewBox="0 0 24 24" fill="none" xmlns="http://www.w3.org/2000/svg">
<path fill-rule="evenodd" clip-rule="evenodd" d="M5.08852 2.75015C5.96102 2.75015 6.19768 2.76194 6.37971 2.83063C6.61706 2.92019 6.82155 3.07984 6.966 3.28839C7.07679 3.44833 7.14563 3.67506 7.35724 4.52151L8.08485 4.3396L7.35724 4.52151L7.47953 5.01066C7.78077 6.21561 7.8883 6.67478 7.87149 7.11282C7.85575 7.52301 7.76244 7.9265 7.5965 8.30196C7.4193 8.7029 7.1211 9.06824 6.32144 10.0186L4.92295 11.6807C3.91348 9.70513 3.23168 7.46159 2.92862 4.99006C2.81457 4.05991 2.80285 3.82548 2.8876 3.58486C2.98298 3.31406 3.25373 3.00809 3.51091 2.88045C3.60708 2.83273 3.73485 2.79486 3.98252 2.77341C4.24376 2.75079 4.57881 2.75015 5.08852 2.75015ZM7.4692 10.9844L5.71436 13.0699C6.98811 15.0846 8.64357 16.7758 10.6247 18.088L13.1145 16.2237L13.2006 16.1593C14.0128 15.5508 14.5361 15.1589 15.129 14.9245C15.6532 14.7173 16.2101 14.6051 16.7737 14.5931C17.4111 14.5795 18.0453 14.7382 19.0298 14.9845L19.1341 15.0106L19.8424 15.1877L19.9631 15.2178C20.6297 15.3838 21.1508 15.5136 21.5658 15.801C22.0246 16.1188 22.3759 16.5687 22.5729 17.0909L21.8712 17.3556L22.5729 17.0909C22.7511 17.5632 22.7507 18.0901 22.7501 18.7614L22.75 18.8813V18.9117C22.75 19.3929 22.75 19.8003 22.7212 20.1384C22.6908 20.4961 22.6248 20.8306 22.4633 21.1561C22.162 21.7631 21.5528 22.3022 20.9136 22.5273C20.3021 22.7427 19.6992 22.6681 18.9486 22.5753L18.8273 22.5603C15.6136 22.1662 12.7265 21.1664 10.2624 19.6374C7.73479 18.069 5.66356 15.9507 4.14702 13.3814C2.73938 10.9966 1.81498 8.23256 1.43977 5.17262L1.42481 5.0513C1.33197 4.30081 1.25741 3.69802 1.4728 3.08653C1.69795 2.44733 2.23704 1.83809 2.84409 1.53682C3.16802 1.37606 3.4988 1.30968 3.85313 1.279C4.1867 1.25012 4.58702 1.25013 5.05801 1.25014L5.08852 1.25015L5.21294 1.25007C5.89983 1.24945 6.43687 1.24897 6.90925 1.42721L6.64448 2.12892L6.90925 1.42721C7.43143 1.62423 7.8813 1.97548 8.19909 2.43429L7.58255 2.86134L8.19909 2.43429C8.48657 2.84933 8.61636 3.37046 8.78235 4.03699L8.81245 4.1577L8.93474 4.64686L8.9628 4.75903C9.22656 5.81311 9.39642 6.49198 9.37039 7.17035C9.34738 7.76985 9.21101 8.35957 8.96848 8.90832C8.69406 9.52924 8.2434 10.0646 7.54365 10.8959L7.4692 10.9844ZM19.0099 21.0715C16.4117 20.7529 14.0654 20.0157 12.0174 18.9191L14.0136 17.4244C14.9415 16.7297 15.2974 16.4709 15.6804 16.3195L15.4047 15.622L15.6804 16.3195C16.039 16.1778 16.4201 16.101 16.8057 16.0927C17.2174 16.084 17.6457 16.1847 18.7703 16.4658L19.4786 16.6429C20.3251 16.8545 20.5518 16.9233 20.7117 17.0341C20.9203 17.1786 21.0799 17.3831 21.1695 17.6204C21.2384 17.8029 21.25 18.0313 21.25 18.8813C21.25 19.401 21.2494 19.7442 21.2266 20.0111C21.205 20.2654 21.1666 20.3946 21.1197 20.4892C20.992 20.7464 20.6861 21.0172 20.4153 21.1125L20.6644 21.8199L20.4153 21.1125C20.1746 21.1973 19.9402 21.1856 19.0099 21.0715Z" fill="#66768E"/>
</svg>
