<svg width="16" height="12" viewBox="0 0 16 12" fill="none" xmlns="http://www.w3.org/2000/svg">
<path fill-rule="evenodd" clip-rule="evenodd" d="M9.46967 0.46967C9.17678 0.762563 9.17678 1.23744 9.46967 1.53033L13.1893 5.25H1C0.585787 5.25 0.25 5.58579 0.25 6C0.25 6.41421 0.585787 6.75 1 6.75H13.1893L9.46967 10.4697C9.17678 10.7626 9.17678 11.2374 9.46967 11.5303C9.76256 11.8232 10.2374 11.8232 10.5303 11.5303L15.5303 6.53033C15.6022 6.45842 15.6565 6.37555 15.6931 6.28709C15.7298 6.19866 15.75 6.10169 15.75 6C15.75 5.89831 15.7298 5.80134 15.6931 5.71291C15.6565 5.62445 15.6022 5.54158 15.5303 5.46967L10.5303 0.46967C10.2374 0.176777 9.76256 0.176777 9.46967 0.46967Z" fill="#66768E"/>
</svg>
