<svg width="21" height="22" viewBox="0 0 21 22" fill="none" xmlns="http://www.w3.org/2000/svg">
<path fill-rule="evenodd" clip-rule="evenodd" d="M1.75 10.5C1.75 5.66751 5.66751 1.75 10.5 1.75C15.3325 1.75 19.25 5.66751 19.25 10.5C19.25 15.3325 15.3325 19.25 10.5 19.25C5.66751 19.25 1.75 15.3325 1.75 10.5ZM10.5 0.25C4.83908 0.25 0.25 4.83908 0.25 10.5C0.25 16.1609 4.83908 20.75 10.5 20.75C16.1609 20.75 20.75 16.1609 20.75 10.5C20.75 4.83908 16.1609 0.25 10.5 0.25ZM20.5017 19.9117C20.6581 20.2545 20.7632 20.8435 20.3078 21.2884C20.0973 21.4969 19.8267 21.6218 19.5295 21.6386C19.2436 21.6547 18.9857 21.5686 18.7781 21.4511C18.3721 21.2215 18.048 20.8147 17.8252 20.3581L17.8252 20.358C17.7095 20.1209 17.6124 19.8611 17.5894 19.6055C17.5675 19.3633 17.6056 18.9022 18.0431 18.6445C18.4092 18.4288 18.7946 18.5279 18.9847 18.5945C19.2152 18.6752 19.4519 18.8122 19.6834 18.9758L19.6837 18.976C20.0358 19.2252 20.3364 19.5494 20.5017 19.9117ZM19.1421 20.5469L19.1414 20.5448C19.1419 20.5462 19.1421 20.5469 19.1421 20.5469Z" fill="#66768E"/>
</svg>
