<svg width="20" height="19" viewBox="0 0 20 19" fill="none" xmlns="http://www.w3.org/2000/svg">
<path fill-rule="evenodd" clip-rule="evenodd" d="M5.00008 0.75C2.74492 0.75 0.916748 2.57817 0.916748 4.83333C0.916748 7.0885 2.74492 8.91667 5.00008 8.91667H15.0001C17.2552 8.91667 19.0834 7.0885 19.0834 4.83333C19.0834 2.57817 17.2552 0.75 15.0001 0.75H5.00008ZM2.41675 4.83333C2.41675 3.4066 3.57335 2.25 5.00008 2.25H15.0001C16.4268 2.25 17.5834 3.4066 17.5834 4.83333C17.5834 6.26007 16.4268 7.41667 15.0001 7.41667H5.00008C3.57335 7.41667 2.41675 6.26007 2.41675 4.83333ZM5.00008 9.91667C2.74492 9.91667 0.916748 11.7448 0.916748 14C0.916748 16.2552 2.74492 18.0833 5.00008 18.0833H15.0001C17.2552 18.0833 19.0834 16.2552 19.0834 14C19.0834 11.7448 17.2552 9.91667 15.0001 9.91667H5.00008ZM2.41675 14C2.41675 12.5733 3.57335 11.4167 5.00008 11.4167H15.0001C16.4268 11.4167 17.5834 12.5733 17.5834 14C17.5834 15.4267 16.4268 16.5833 15.0001 16.5833H5.00008C3.57335 16.5833 2.41675 15.4267 2.41675 14ZM3.41675 4.41667C3.41675 4.83088 3.75253 5.16667 4.16675 5.16667H5.83341C6.24763 5.16667 6.58341 4.83088 6.58341 4.41667C6.58341 4.00245 6.24763 3.66667 5.83341 3.66667H4.16675C3.75253 3.66667 3.41675 4.00245 3.41675 4.41667ZM4.16675 14.3333C3.75253 14.3333 3.41675 13.9975 3.41675 13.5833C3.41675 13.1691 3.75253 12.8333 4.16675 12.8333H5.83341C6.24763 12.8333 6.58341 13.1691 6.58341 13.5833C6.58341 13.9975 6.24763 14.3333 5.83341 14.3333H4.16675Z" fill="#CCD4E0"/>
</svg>
