<svg width="22" height="22" viewBox="0 0 22 22" fill="none" xmlns="http://www.w3.org/2000/svg">
<path fill-rule="evenodd" clip-rule="evenodd" d="M7.35347 2.43468C7.77209 2.18563 8.3358 2.32435 8.60347 2.7703L8.70933 2.95312L8.71021 2.95466C9.24021 3.87837 10.0439 4.50763 11.0012 4.50763C11.958 4.50763 12.764 3.87904 13.2989 2.95623L13.2991 2.95591L13.4065 2.7703C13.6742 2.32435 14.2379 2.18563 14.6565 2.43468L14.6565 2.43477L14.6675 2.44108L16.3975 3.43108L16.3979 3.43131C16.9451 3.74402 17.1336 4.4527 16.8208 4.99456C16.286 5.91755 16.1423 6.9291 16.6202 7.75835C17.0981 8.58764 18.0452 8.97013 19.11 8.97013C19.7384 8.97013 20.26 9.4869 20.26 10.1201V11.8801C20.26 12.5085 19.7432 13.0301 19.11 13.0301C18.0452 13.0301 17.0981 13.4126 16.6202 14.2419C16.1426 15.0706 16.2858 16.0814 16.8198 17.0039C17.1351 17.5579 16.9438 18.257 16.3979 18.5689L16.3975 18.5692L14.6675 19.5592L14.6674 19.5591L14.6565 19.5656C14.2379 19.8146 13.6742 19.6759 13.4065 19.23L13.3007 19.0471L13.3 19.0459C12.77 18.122 11.9662 17.4926 11.0087 17.4926C10.052 17.4926 9.24599 18.1212 8.71112 19.044L8.71093 19.0443L8.60345 19.23C8.33578 19.6759 7.77208 19.8146 7.35347 19.5656L7.35352 19.5655L7.34251 19.5592L5.61251 18.5692L5.6121 18.5689C5.06491 18.2563 4.87642 17.5477 5.18909 17.0059C5.72398 16.0828 5.86773 15.0712 5.38982 14.2419C4.91192 13.4126 3.96479 13.0301 2.9 13.0301C2.26678 13.0301 1.75 12.5085 1.75 11.8801V10.1201C1.75 9.49177 2.26678 8.97013 2.9 8.97013C3.96479 8.97013 4.91192 8.58764 5.38982 7.75835C5.86768 6.92912 5.72401 5.9176 5.18923 4.99463C4.87636 4.45276 5.06483 3.74404 5.6121 3.43131L5.61251 3.43108L7.34251 2.44108L7.34256 2.44117L7.35347 2.43468ZM5.18923 4.99463C5.18912 4.99443 5.189 4.99423 5.18888 4.99402L4.54 5.37013L5.1894 4.99492C5.18934 4.99482 5.18929 4.99473 5.18923 4.99463ZM9.89456 2.00666C9.22257 0.877153 7.75191 0.456677 6.59248 1.14204L4.8679 2.12894L4.86774 2.12903L4.86749 2.12918C3.59518 2.85651 3.16378 4.48738 3.8906 5.74533L3.89112 5.74623C4.26606 6.3931 4.20721 6.80631 4.09018 7.0094C3.97308 7.21261 3.64521 7.47013 2.9 7.47013C1.43322 7.47013 0.25 8.66848 0.25 10.1201V11.8801C0.25 13.3318 1.43322 14.5301 2.9 14.5301C3.64521 14.5301 3.97308 14.7876 4.09018 14.9908C4.20721 15.1939 4.26606 15.6072 3.89112 16.254L3.8906 16.2549C3.16378 17.5129 3.59518 19.1437 4.86749 19.8711L4.8679 19.8713L6.59257 20.8583C7.75199 21.5436 9.22259 21.1231 9.89456 19.9936L9.8946 19.9936L9.89907 19.9859L10.0089 19.7962L10.0091 19.7959C10.3841 19.149 10.773 18.9926 11.0087 18.9926C11.2434 18.9926 11.6293 19.1477 11.9993 19.7931L12.0009 19.7959L12.1109 19.9859L12.1109 19.9859L12.1154 19.9936C12.7874 21.1231 14.258 21.5436 15.4174 20.8583L17.1421 19.8713L17.1425 19.8711C18.4157 19.1432 18.8444 17.5236 18.1212 16.258L18.1212 16.258L18.1189 16.254C17.7439 15.6072 17.8028 15.1939 17.9198 14.9908C18.0369 14.7876 18.3648 14.5301 19.11 14.5301C20.5768 14.5301 21.76 13.3318 21.76 11.8801V10.1201C21.76 8.65335 20.5616 7.47013 19.11 7.47013C18.3648 7.47013 18.0369 7.21261 17.9198 7.0094C17.8028 6.80631 17.7439 6.3931 18.1189 5.74623L18.1194 5.74533C18.8463 4.48724 18.4147 2.85616 17.1421 2.12894L15.4175 1.14205C14.2581 0.456673 12.7874 0.877147 12.1154 2.00666L12.1154 2.00663L12.1109 2.01435L12.0011 2.20402L12.0009 2.20435C11.6259 2.85127 11.237 3.00763 11.0012 3.00763C10.7666 3.00763 10.3807 2.85259 10.0107 2.20713L10.0091 2.20435L9.89907 2.01435L9.89912 2.01432L9.89456 2.00666ZM8.75 11.0002C8.75 9.75755 9.75736 8.75019 11 8.75019C12.2426 8.75019 13.25 9.75755 13.25 11.0002C13.25 12.2428 12.2426 13.2502 11 13.2502C9.75736 13.2502 8.75 12.2428 8.75 11.0002ZM11 7.25019C8.92893 7.25019 7.25 8.92912 7.25 11.0002C7.25 13.0713 8.92893 14.7502 11 14.7502C13.0711 14.7502 14.75 13.0713 14.75 11.0002C14.75 8.92912 13.0711 7.25019 11 7.25019Z" fill="#66768E"/>
</svg>
