<svg width="24" height="24" viewBox="0 0 24 24" fill="none" xmlns="http://www.w3.org/2000/svg">
<path fill-rule="evenodd" clip-rule="evenodd" d="M8.00008 6.25C8.41429 6.25 8.75008 6.58579 8.75008 7V16.5986L10.5841 15.376C10.9287 15.1462 11.3944 15.2393 11.6241 15.584C11.8539 15.9286 11.7608 16.3943 11.4161 16.624L8.43056 18.6144C8.406 18.6316 8.38053 18.6472 8.35432 18.6612C8.26419 18.7096 8.16302 18.7401 8.05557 18.748C7.9651 18.7548 7.87303 18.7452 7.78405 18.7184C7.73588 18.704 7.68974 18.6848 7.64619 18.6614C7.61986 18.6474 7.59427 18.6317 7.5696 18.6144L4.58405 16.624C4.23941 16.3943 4.14628 15.9286 4.37604 15.584C4.60581 15.2393 5.07146 15.1462 5.4161 15.376L7.25008 16.5986V7C7.25008 6.58579 7.58587 6.25 8.00008 6.25ZM16.5304 6.46967C16.2375 6.17678 15.7626 6.17678 15.4698 6.46967L12.4698 9.46967C12.1769 9.76256 12.1769 10.2374 12.4698 10.5303C12.7626 10.8232 13.2375 10.8232 13.5304 10.5303L15.2501 8.81066V18C15.2501 18.4142 15.5859 18.75 16.0001 18.75C16.4143 18.75 16.7501 18.4142 16.7501 18V8.81066L18.4697 10.5303C18.7626 10.8232 19.2375 10.8232 19.5304 10.5303C19.8233 10.2374 19.8233 9.76256 19.5304 9.46967L16.5304 6.46967Z" fill="#66768E"/>
</svg>
