<svg width="12" height="18" viewBox="0 0 12 18" fill="none" xmlns="http://www.w3.org/2000/svg">
<path fill-rule="evenodd" clip-rule="evenodd" d="M3.41667 4.83333C3.41667 3.4 4.56667 2.25 6 2.25C7.43054 2.25 8.58189 3.40957 8.58333 4.83066C8.572 6.22522 7.49304 7.34697 6.14927 7.41481C6.04774 7.40448 5.94267 7.40437 5.84106 7.41448C4.48786 7.33599 3.41667 6.21873 3.41667 4.83333ZM6 0.75C3.73824 0.75 1.91667 2.57158 1.91667 4.83333C1.91667 7.04615 3.6577 8.83698 5.84364 8.91618C5.89272 8.91795 5.94186 8.91491 5.99034 8.90708L5.99354 8.90698L5.99674 8.90708C6.04343 8.91462 6.09073 8.91772 6.13801 8.91635C8.33395 8.8527 10.0676 7.04157 10.0833 4.83869H10.0833V4.83333C10.0833 2.58639 8.26365 0.75 6 0.75ZM10.0602 10.9521C8.91211 10.246 7.43751 9.91667 6.00472 9.91667C4.57171 9.91667 3.09496 10.2461 1.94159 10.951L1.9398 10.9521C0.902894 11.5898 0.25 12.5217 0.25 13.579C0.25 14.6361 0.902666 15.5678 1.93926 16.2055C3.09278 16.9171 4.5671 17.25 6 17.25C7.43267 17.25 8.90675 16.9172 10.0602 16.2059C11.0971 15.5682 11.75 14.6363 11.75 13.579C11.75 12.5217 11.0971 11.5898 10.0602 10.9521ZM10.0602 16.2059L9.66745 15.5673L10.0611 16.2053C10.0608 16.2055 10.0605 16.2057 10.0602 16.2059ZM1.75 13.579C1.75 13.1948 1.98539 12.6853 2.72472 12.2303C3.58765 11.7032 4.77592 11.4167 6.00472 11.4167C7.2342 11.4167 8.4187 11.7035 9.27439 12.2298C10.0144 12.6849 10.25 13.1946 10.25 13.579C10.25 13.9633 10.0144 14.473 9.27439 14.9282L9.2735 14.9287C8.4107 15.461 7.22606 15.75 6 15.75C4.77394 15.75 3.5893 15.461 2.72649 14.9287L2.7256 14.9282C1.98557 14.473 1.75 13.9633 1.75 13.579Z" fill="#CCD4E0"/>
</svg>
