<svg width="14" height="20" viewBox="0 0 14 20" fill="none" xmlns="http://www.w3.org/2000/svg">
<path fill-rule="evenodd" clip-rule="evenodd" d="M3.75 5C3.75 3.19716 5.19716 1.75 7 1.75C8.80005 1.75 10.2486 3.20931 10.25 4.99732C10.2361 6.7529 8.8741 8.16867 7.17493 8.24815C7.05593 8.23523 6.93186 8.23511 6.81277 8.24781C5.10411 8.15508 3.75 6.74634 3.75 5ZM7 0.25C4.36873 0.25 2.25 2.36873 2.25 5C2.25 7.57457 4.27527 9.65739 6.8178 9.74951C6.86816 9.75133 6.91856 9.74808 6.96826 9.7398L6.96843 9.73977L6.96878 9.73972L6.97031 9.73952L6.97579 9.73898C6.98049 9.73862 6.98611 9.73837 6.99225 9.73837C6.99838 9.73837 7.004 9.73862 7.0087 9.73898L7.01418 9.73952L7.01572 9.73972C7.01596 9.73975 7.01612 9.73978 7.01619 9.73979L7.01623 9.7398C7.06414 9.74778 7.11271 9.75109 7.16126 9.74969C9.7138 9.6757 11.7317 7.56999 11.75 5.00536H11.75V5C11.75 2.38613 9.63316 0.25 7 0.25ZM11.7937 12.4703C10.4452 11.6409 8.70468 11.25 7.00567 11.25C5.30643 11.25 3.56314 11.641 2.20813 12.4692L2.20634 12.4703C0.991741 13.2173 0.25 14.2933 0.25 15.4948C0.25 16.6959 0.991379 17.7717 2.20545 18.5187C3.56067 19.3548 5.30105 19.75 7 19.75C8.69877 19.75 10.439 19.3549 11.7941 18.519C13.0084 17.772 13.75 16.6961 13.75 15.4948C13.75 14.2933 13.0083 13.2173 11.7937 12.4703ZM1.75 15.4948C1.75 14.9664 2.07421 14.3128 2.99126 13.7485C4.05583 13.0982 5.51063 12.75 7.00567 12.75C8.50137 12.75 9.95178 13.0985 11.0079 13.748C11.9256 14.3124 12.25 14.9663 12.25 15.4948C12.25 16.0233 11.9256 16.6772 11.0079 17.2416L11.007 17.2421C9.94252 17.8988 8.49197 18.25 7 18.25C5.50803 18.25 4.05748 17.8988 2.99304 17.2421L2.99215 17.2416C2.07442 16.6772 1.75 16.0233 1.75 15.4948Z" fill="#66768E"/>
</svg>
